<?xml version="1.0" encoding="UTF-8" standalone="no"?>
<svg
   xmlns:dc="http://purl.org/dc/elements/1.1/"
   xmlns:cc="http://creativecommons.org/ns#"
   xmlns:rdf="http://www.w3.org/1999/02/22-rdf-syntax-ns#"
   xmlns:svg="http://www.w3.org/2000/svg"
   xmlns="http://www.w3.org/2000/svg"
   xmlns:sodipodi="http://sodipodi.sourceforge.net/DTD/sodipodi-0.dtd"
   xmlns:inkscape="http://www.inkscape.org/namespaces/inkscape"
   width="51px"
   height="49px"
   viewBox="0 0 51 49"
   id="Layer_1"
   style="enable-background:new 0 0 67 67;"
   version="1.1"
   xml:space="preserve"
   sodipodi:docname="LinkedIn.svg"
   inkscape:version="0.92.1 r15371"><metadata
     id="metadata3760"><rdf:RDF><cc:Work
         rdf:about=""><dc:format>image/svg+xml</dc:format><dc:type
           rdf:resource="http://purl.org/dc/dcmitype/StillImage" /></cc:Work></rdf:RDF></metadata><defs
     id="defs3758" /><sodipodi:namedview
     pagecolor="#ffffff"
     bordercolor="#666666"
     borderopacity="1"
     objecttolerance="10"
     gridtolerance="10"
     guidetolerance="10"
     inkscape:pageopacity="0"
     inkscape:pageshadow="2"
     inkscape:window-width="851"
     inkscape:window-height="557"
     id="namedview3756"
     showgrid="false"
     inkscape:zoom="4.8163265"
     inkscape:cx="25.5"
     inkscape:cy="24.5"
     inkscape:window-x="0"
     inkscape:window-y="25"
     inkscape:window-maximized="0"
     inkscape:current-layer="Layer_1" /><path
     d="m 39.811451,36.045216 v -9.5648 c 0,-5.124582 -2.847501,-7.50925 -6.643602,-7.50925 -3.0634,0 -4.436149,1.61945 -5.201149,2.755433 v -2.363433 h -5.771499 c 0.0765,1.565551 0,16.68205 0,16.68205 H 27.9667 v -9.316533 c 0,-0.497349 0.0374,-0.995517 0.1904,-1.351583 0.4165,-0.996334 1.36595,-2.027784 2.959699,-2.027784 2.089301,0 2.924001,1.529618 2.924001,3.771367 v 8.92535 h 5.770651 z M 16.11515,17.086299 c 2.01195,0 3.2657,-1.282166 3.2657,-2.88365 -0.0374,-1.635783 -1.25375,-2.8812 -3.227451,-2.8812 -1.973699,0 -3.264849,1.244601 -3.264849,2.8812 0,1.601484 1.252899,2.88365 3.19005,2.88365 z M 25.5,49 C 11.417201,49 0,38.030533 0,24.499999 0,10.968649 11.417201,-4.6e-7 25.5,-4.6e-7 39.582799,-4.6e-7 51,10.968649 51,24.499999 51,38.030533 39.582799,49 25.5,49 Z M 19.0009,36.045216 v -16.68205 h -5.77065 v 16.68205 z"
     style="clip-rule:evenodd;fill:#007ab9;fill-rule:evenodd;stroke-width:0.83316666"
     id="path3753"
     inkscape:connector-curvature="0" /></svg>